<svg xmlns="http://www.w3.org/2000/svg" xmlns:xlink="http://www.w3.org/1999/xlink" xml:space="preserve" version="1.1" style="shape-rendering:geometricPrecision;text-rendering:geometricPrecision;image-rendering:optimizeQuality;" viewBox="0 0 846.66 1058.325" x="0px" y="0px" fill-rule="evenodd" clip-rule="evenodd"><defs><style type="text/css">
   
    .fil0 {fill:black}
   
  </style></defs><g><path class="fil0" d="M251.23 194.28c-6.73,-10.09 -5.96,-18.27 -1.23,-24.82 7.03,-9.76 23.68,-15.87 35.42,-19.71 11.8,-3.85 26.49,-7.04 28.88,0.3 1.97,6.03 -0.58,19.68 5.67,7.86 2.24,-4.22 6.04,-11.42 11.25,-25.17 5.15,-13.6 8.89,-27.71 14.11,-41.31 23.15,-60.35 41,-33.36 78,-27.29 37,-6.07 54.84,-33.06 78,27.29 5.22,13.61 8.96,27.71 14.11,41.31 5.2,13.75 9.01,20.95 11.25,25.17 6.25,11.82 3.7,-1.83 5.66,-7.86 2.4,-7.34 17.08,-4.15 28.88,-0.3 11.49,3.76 28.33,9.85 35.43,19.71 4.72,6.56 5.5,14.73 -1.23,24.82 -12.03,18.05 -32.24,30.49 -51.88,38.83 -1.16,18.81 -1.25,38.07 -3.47,56.72 4.43,0.63 11.77,2.17 19.3,3.74 8.88,1.86 18.04,3.77 22.93,4.32 10.71,1.19 10.71,1.19 -0.3,13.9 -5.61,6.46 -30.45,35.51 -42.93,52.47 -18.98,25.81 8.04,-0.72 13.85,-7 10.37,-11.19 18.35,-19.82 35.92,-12.7 22.67,9.17 57.25,21.28 70.54,42.38 7.36,11.69 16.06,41.43 23.54,73.88 9.1,39.51 16.4,83.1 17.23,102.99 0.17,4.15 -52.28,79.22 -63.29,88.37l0 -177.56c-142.36,0 -284.72,0 -427.08,0 0,59.18 0,118.37 0,177.56 -8.24,-6.83 -63.52,-83.01 -63.3,-88.37 0.84,-19.89 8.14,-63.48 17.24,-102.99 7.47,-32.45 16.18,-62.19 23.54,-73.88 13.29,-21.1 47.87,-33.21 70.54,-42.38 17.56,-7.12 25.55,1.51 35.91,12.7 5.74,6.19 32.98,33 13.85,7 -12.48,-16.96 -37.32,-46.01 -42.92,-52.47 -11.01,-12.71 -11.01,-12.71 -0.3,-13.9 4.89,-0.55 14.04,-2.46 22.92,-4.32 7.54,-1.57 14.87,-3.11 19.31,-3.74 -2.24,-18.75 -2.31,-37.86 -3.47,-56.72 -18.92,-8.03 -40.34,-21.52 -51.88,-38.83zm172.1 326.24c44.84,0 81.2,36.35 81.2,81.2 0,44.84 -36.36,81.2 -81.2,81.2 -44.85,0 -81.2,-36.36 -81.2,-81.2 0,-44.85 36.35,-81.2 81.2,-81.2zm0 18.65c19.25,0 34.85,15.6 34.85,34.85 0,11.67 -5.73,22 -14.54,28.32l0 12.76c-1.67,1.22 -3.46,2.3 -5.34,3.21l0 -7.7 -3.27 2.84 0 6.24c-3.17,1.15 -6.55,1.86 -10.07,2.04l0 -8.69 -3.27 0 0 8.71c-3.51,-0.15 -6.89,-0.81 -10.06,-1.92l0 -6.38 -3.27 -2.84 0 7.89c-1.88,-0.88 -3.67,-1.93 -5.35,-3.12l0 -13.04c-8.8,-6.32 -14.54,-16.65 -14.54,-28.32 0,-19.25 15.61,-34.85 34.86,-34.85zm-35.69 74.68l34.25 20.06 37.13 -21.75c0.12,-4.46 1.04,-9.12 5.26,-11.08 3.25,-1.51 6.51,-0.93 8.1,2.47 0.79,1.71 0.98,3.87 0.47,5.93 2.02,0.58 3.79,1.82 4.87,3.36 2.14,3.05 1.08,6.17 -1.89,8.25 -3.84,2.7 -8.39,1.11 -12.34,-1.04l-32.64 19.11 9.15 5.35c3.94,-2.15 8.49,-3.74 12.34,-1.04 2.97,2.08 4.02,5.2 1.89,8.25 -1.09,1.54 -2.86,2.78 -4.87,3.37 0.51,2.05 0.32,4.21 -0.48,5.92 -1.58,3.4 -4.84,3.98 -8.09,2.47 -4.22,-1.96 -5.15,-6.62 -5.27,-11.08l-13.63 -7.99 -10.76 6.3c-0.12,4.45 -1.06,9.08 -5.26,11.04 -3.28,1.52 -6.53,0.9 -8.1,-2.48 -0.79,-1.7 -0.98,-3.86 -0.47,-5.92 -2.02,-0.58 -3.79,-1.82 -4.87,-3.36 -2.14,-3.05 -1.08,-6.17 1.88,-8.25 3.87,-2.71 8.43,-1.11 12.39,1.06l6.22 -3.64 -29.71 -17.4c-3.96,2.17 -8.53,3.77 -12.39,1.07 -2.97,-2.09 -4.02,-5.21 -1.88,-8.25 1.08,-1.55 2.85,-2.79 4.87,-3.37 -0.51,-2.06 -0.33,-4.22 0.47,-5.92 1.57,-3.38 4.82,-4 8.09,-2.48 4.21,1.96 5.14,6.59 5.27,11.04zm41.72 -13.66c1.51,1.52 1.87,3.61 0.8,4.69 -1.07,1.07 -3.17,0.71 -4.68,-0.8 -1.51,-1.52 -1.87,-3.61 -0.8,-4.69 1.07,-1.07 3.17,-0.71 4.68,0.8zm-11.49 0c-1.51,1.52 -1.87,3.61 -0.8,4.69 1.08,1.07 3.17,0.71 4.68,-0.8 1.52,-1.52 1.88,-3.61 0.8,-4.69 -1.07,-1.07 -3.16,-0.71 -4.68,0.8zm19.61 -4.96c-7.24,-0.11 -11.48,-5.09 -11.43,-12.08 0.04,-6.98 4.19,-7.04 11.43,-7.04 7.24,0 11.39,0.06 11.44,7.04 0.04,6.99 -4.19,11.97 -11.44,12.08zm-28.31 0c-7.24,-0.11 -11.48,-5.09 -11.43,-12.08 0.05,-6.98 4.19,-7.04 11.43,-7.04 7.25,0 11.39,0.06 11.44,7.04 0.05,6.99 -4.19,11.97 -11.44,12.08zm166.41 133.29l0 13.29 52.84 0 0 51.98 -410.19 0 0 -51.98 52.84 0 0 -13.29 -52.84 0 0 -245.46 410.19 0 0 245.46 -52.84 0zm-69.84 13.29l0 -13.29 -164.82 0 0 13.29 164.82 0zm108 14.68l-380.82 0 0 22.62 380.82 0 0 -22.62zm0 -258.75l-380.82 0 0 216.1 380.82 0 0 -216.1zm-98.54 -222.41c2.01,-10.89 2.6,-22.18 2.81,-33.24 -28.7,8.27 -61.69,12.41 -94.68,12.41 -32.99,0 -65.99,-4.14 -94.68,-12.41 0.21,11.06 0.79,22.35 2.8,33.24 5.89,31.94 56.21,105.65 91.79,105.91 35.63,0 86.08,-74.01 91.96,-105.91z"/></g><text x="0" y="861.66" fill="#000000" font-size="5px" font-weight="bold" font-family="'Helvetica Neue', Helvetica, Arial-Unicode, Arial, Sans-serif">Created by Rudi supriyanto</text><text x="0" y="866.66" fill="#000000" font-size="5px" font-weight="bold" font-family="'Helvetica Neue', Helvetica, Arial-Unicode, Arial, Sans-serif">from the Noun Project</text></svg>